<svg viewBox="0 0 236 210" xmlns="http://www.w3.org/2000/svg">
  <g>
    <rect x="0" y="0" width="18" height="12" rx="3" fill="#C1292E"/>
    <rect x="22" y="0" width="18" height="12" rx="3" fill="#C1292E"/>
    <rect x="44" y="0" width="18" height="12" rx="3" fill="#C1292E"/>
    <rect x="66" y="0" width="18" height="12" rx="3" fill="#C1292E"/>
    <rect x="88" y="0" width="18" height="12" rx="3" fill="#D94040"/>
    <rect x="110" y="0" width="18" height="12" rx="3" fill="#D94040"/>
    <rect x="132" y="0" width="18" height="12" rx="3" fill="#D94040" opacity="0.7"/>
    <rect x="0" y="16" width="18" height="12" rx="3" fill="#C1292E"/>
    <rect x="22" y="16" width="18" height="12" rx="3" fill="#C1292E"/>
    <rect x="132" y="16" width="18" height="12" rx="3" fill="#C1292E"/>
    <rect x="154" y="16" width="18" height="12" rx="3" fill="#D94040"/>
    <rect x="0" y="32" width="18" height="12" rx="3" fill="#C1292E"/>
    <rect x="22" y="32" width="18" height="12" rx="3" fill="#C1292E"/>
    <rect x="154" y="32" width="18" height="12" rx="3" fill="#C1292E"/>
    <rect x="176" y="32" width="18" height="12" rx="3" fill="#D94040" opacity="0.5"/>
    <rect x="0" y="48" width="18" height="12" rx="3" fill="#C1292E"/>
    <rect x="22" y="48" width="18" height="12" rx="3" fill="#C1292E"/>
    <rect x="154" y="48" width="18" height="12" rx="3" fill="#C1292E"/>
    <rect x="0" y="64" width="18" height="12" rx="3" fill="#C1292E"/>
    <rect x="22" y="64" width="18" height="12" rx="3" fill="#C1292E"/>
    <rect x="154" y="64" width="18" height="12" rx="3" fill="#D94040"/>
    <rect x="0" y="80" width="18" height="12" rx="3" fill="#C1292E"/>
    <rect x="22" y="80" width="18" height="12" rx="3" fill="#C1292E"/>
    <rect x="132" y="80" width="18" height="12" rx="3" fill="#C1292E"/>
    <rect x="154" y="80" width="18" height="12" rx="3" fill="#D94040" opacity="0.55"/>
    <rect x="0" y="96" width="18" height="12" rx="3" fill="#C1292E"/>
    <rect x="22" y="96" width="18" height="12" rx="3" fill="#C1292E"/>
    <rect x="44" y="96" width="18" height="12" rx="3" fill="#C1292E"/>
    <rect x="66" y="96" width="18" height="12" rx="3" fill="#C1292E"/>
    <rect x="88" y="96" width="18" height="12" rx="3" fill="#D94040"/>
    <rect x="110" y="96" width="18" height="12" rx="3" fill="#D94040"/>
    <rect x="0" y="112" width="18" height="12" rx="3" fill="#C1292E"/>
    <rect x="22" y="112" width="18" height="12" rx="3" fill="#C1292E"/>
    <rect x="88" y="112" width="18" height="12" rx="3" fill="#C1292E"/>
    <rect x="110" y="112" width="18" height="12" rx="3" fill="#D94040" opacity="0.8"/>
    <rect x="0" y="128" width="18" height="12" rx="3" fill="#C1292E"/>
    <rect x="22" y="128" width="18" height="12" rx="3" fill="#C1292E"/>
    <rect x="110" y="128" width="18" height="12" rx="3" fill="#C1292E"/>
    <rect x="132" y="128" width="18" height="12" rx="3" fill="#D94040"/>
    <rect x="0" y="144" width="18" height="12" rx="3" fill="#C1292E"/>
    <rect x="22" y="144" width="18" height="12" rx="3" fill="#C1292E"/>
    <rect x="132" y="144" width="18" height="12" rx="3" fill="#C1292E"/>
    <rect x="154" y="144" width="18" height="12" rx="3" fill="#D94040" opacity="0.7"/>
    <rect x="0" y="160" width="18" height="12" rx="3" fill="#C1292E"/>
    <rect x="22" y="160" width="18" height="12" rx="3" fill="#C1292E"/>
    <rect x="154" y="160" width="18" height="12" rx="3" fill="#C1292E"/>
    <rect x="176" y="160" width="18" height="12" rx="3" fill="#D94040"/>
    <rect x="0" y="176" width="18" height="12" rx="3" fill="#C1292E"/>
    <rect x="22" y="176" width="18" height="12" rx="3" fill="#C1292E"/>
    <rect x="176" y="176" width="18" height="12" rx="3" fill="#C1292E"/>
    <rect x="198" y="176" width="18" height="12" rx="3" fill="#D94040" opacity="0.6"/>
    <rect x="0" y="192" width="18" height="12" rx="3" fill="#8B1A1A"/>
    <rect x="22" y="192" width="18" height="12" rx="3" fill="#C1292E"/>
    <rect x="198" y="192" width="18" height="12" rx="3" fill="#C1292E"/>
    <rect x="220" y="188" width="12" height="8" rx="2" fill="#D94040" opacity="0.4"/>
    <rect x="218" y="200" width="10" height="7" rx="2" fill="#D94040" opacity="0.25"/>
    <rect x="236" y="194" width="8" height="6" rx="2" fill="#D94040" opacity="0.15"/>
    <rect x="180" y="4" width="10" height="7" rx="2" fill="#C1292E" opacity="0.2"/>
    <rect x="188" y="18" width="8" height="6" rx="2" fill="#D94040" opacity="0.12"/>
  </g>
</svg>
